# xmcd
#
# Track frame offsets: 
#        150
#        15557
#        28112
#        39220
#        56539
#        79800
#        96615
#        113002
#        140315
#        159269
#        177417
#        198727
#        212475
#        230748
#        253000
#        270497
#
# Disc length: 4134 seconds
#
# Revision: 0
# Processed by: cddbd v1.5.2PL0 Copyright (c) Steve Scherf et al.
# Submitted via: ExactAudioCopy v1.3
#
DISCID=d7102410
DTITLE=Ken Roberts - Mendocino Son
DYEAR=2019
DGENRE=Country
TTITLE0=One more Mile
TTITLE1=Get it Straight.
TTITLE2=Falling Star
TTITLE3=Should I tell her
TTITLE4=Ghosts of California
TTITLE5=Call on me
TTITLE6=Come out of the Rain
TTITLE7=Cat 5 Hurricane
TTITLE8=Till the Morning
TTITLE9=Ties that bind
TTITLE10=Jenny
TTITLE11=Better Days
TTITLE12=Lose again
TTITLE13=Next to You
TTITLE14=Rescue me
TTITLE15=Mendocino Son
EXTD=
EXTT0=
EXTT1=
EXTT2=
EXTT3=
EXTT4=
EXTT5=
EXTT6=
EXTT7=
EXTT8=
EXTT9=
EXTT10=
EXTT11=
EXTT12=
EXTT13=
EXTT14=
EXTT15=
PLAYORDER=
